<svg width="149" height="150" viewBox="0 0 149 150" fill="none" xmlns="http://www.w3.org/2000/svg">
<path d="M65.5975 45.439C65.5975 45.439 39.0801 49.5962 41.0909 87.456C41.0982 87.5964 38.0249 89.6408 37.7842 89.8593C35.6411 91.8012 33.8431 94.2884 33.0568 97.1978C30.2571 107.558 40.2668 118.233 48.3614 121.067C51.3849 122.125 54.5807 122.639 57.7828 122.732C78.599 123.339 106.159 110.083 107.574 84.1941C107.625 83.2652 107.637 82.3353 107.613 81.4076C107.488 76.492 106.304 71.7046 104.519 67.2595C104.52 67.2597 92.9349 38.4677 65.5975 45.439Z" fill="#643D19"/>
<g style="mix-blend-mode:multiply" opacity="0.5">
<path d="M40.4193 87.8556C40.7066 88.5607 40.9933 89.4616 41.0735 89.9769C41.4156 92.187 40.661 94.469 39.3501 96.1095C38.1054 97.6672 36.3275 98.6772 34.6059 99.058C34.0247 99.1867 33.3209 99.2527 32.7053 99.2733C33.3519 92.8732 38.5527 89.0334 40.4193 87.8556Z" fill="#FF5C3C"/>
</g>
<g style="mix-blend-mode:multiply" opacity="0.5">
<path d="M77.7993 104.677C72.8734 103.615 69.8149 98.4148 70.9679 93.0624C72.1209 87.7099 77.0487 84.2319 81.9745 85.2939C86.9004 86.3559 89.9589 91.5558 88.8059 96.9082C87.6529 102.261 82.7251 105.739 77.7993 104.677Z" fill="#FF5C3C"/>
</g>
<path opacity="0.3" d="M53.6846 89.7052C53.6846 89.7052 49.4781 85.695 46.2216 89.4653L53.6846 89.7052Z" fill="#1D0C00"/>
<path d="M92.9062 109.686C106.91 116.719 119.619 99.0866 115.547 89.1748C112.95 82.8525 105.378 82.3606 100.991 88.1354C98.4017 91.5436 96.3068 95.9001 95.1174 100.068" fill="#643D19"/>
<path opacity="0.3" d="M104.44 93.9521C102.638 95.7887 101.19 98.5128 99.4097 100.032C99.7386 97.4897 100.264 94.7744 101.496 92.4831C102.748 90.1558 105.024 88.2388 107.342 88.3969C110.214 88.593 112.579 91.9448 112.883 94.9835C112.701 93.165 109.05 91.9342 107.657 92.1064C105.475 96.2271 104.63 104.349 104.63 104.349C102.812 99.751 103.548 96.1346 104.44 93.9521Z" fill="#1D0C00"/>
<mask id="mask0_108_243" style="mask-type:alpha" maskUnits="userSpaceOnUse" x="20" y="51" width="35" height="51">
<path d="M41.8216 74.2338C43.2749 63.4021 48.6843 55.5074 54.0332 54.5307L30.4174 51.2974L20.1234 87.7733L32.8395 101.414C32.0322 94.9473 38.1548 89.6258 41.317 87.7733C40.9133 85.1058 41.4852 77.6355 41.8216 74.2338Z" fill="#C4C4C4"/>
</mask>
<g mask="url(#mask0_108_243)">
<path d="M35.1681 83.4712C36.4557 72.5126 46.474 66.665 51.3724 65.7296C50.3876 60.4008 48.2946 60.7282 44.1189 61.5562C29.5296 64.4491 27.1679 77.2378 27.3063 83.7544C32.736 84.5506 34.8932 84.5228 35.1681 83.4712Z" fill="#351700"/>
<ellipse cx="3.92367" cy="2.06067" rx="3.92367" ry="2.06067" transform="matrix(1.01788 -0.0478973 0.157336 0.970823 26.9736 81.804)" fill="#451E00"/>
<path opacity="0.6" fill-rule="evenodd" clip-rule="evenodd" d="M35.2086 83.1539C36.65 72.3998 46.522 66.6561 51.373 65.7297C51.5207 64.4221 47.8974 65.0118 43.9585 66.4702C33.8323 70.2194 31.0403 75.8473 31.1787 82.3639C31.1942 82.3662 31.2096 82.3685 31.225 82.3708C31.2604 83.4831 31.3659 84.9556 31.6156 85.6174C33.8214 85.5136 35.4643 84.5338 35.2853 83.4289C35.2702 83.336 35.2444 83.2441 35.2086 83.1539Z" fill="#240F00"/>
<path d="M40.0201 86.9989C40.9953 75.8598 50.723 69.6043 55.5311 68.4936C54.4159 63.1308 52.3594 63.5321 48.2616 64.5099C33.9441 67.9263 31.9583 80.9544 32.2704 87.5482C37.6494 88.1732 39.7772 88.073 40.0201 86.9989Z" fill="#351700"/>
<ellipse cx="3.89225" cy="2.07462" rx="3.89225" ry="2.07462" transform="matrix(1.01116 -0.0831476 0.180179 0.971187 31.8887 85.5847)" fill="#451E00"/>
<path opacity="0.6" fill-rule="evenodd" clip-rule="evenodd" d="M40.0502 86.675C41.1834 75.7386 50.7689 69.5935 55.5302 68.4937C55.6408 67.1646 52.0815 67.8828 48.2342 69.491C38.3437 73.6254 35.7403 79.4172 36.0525 86.011C36.068 86.0128 36.0835 86.0146 36.0989 86.0164C36.1639 87.1415 36.3076 88.6287 36.5718 89.2905C38.7454 89.1117 40.3402 88.0648 40.1337 86.952C40.1163 86.858 40.0882 86.7655 40.0502 86.675Z" fill="#240F00"/>
<path d="M44.4489 95.0287C42.4301 83.6781 49.841 74.6929 54.0245 72.2212C51.5775 67.2074 49.7689 68.1912 46.2115 70.3288C33.7826 77.7971 35.357 91.3129 37.3799 97.7788C42.5508 96.8702 44.505 96.1654 44.4489 95.0287Z" fill="#351700"/>
<ellipse cx="3.85757" cy="2.08966" rx="3.85757" ry="2.08966" transform="matrix(0.927598 -0.37358 0.419818 0.907608 36.5107 95.9348)" fill="#451E00"/>
<path opacity="0.6" fill-rule="evenodd" clip-rule="evenodd" d="M44.3946 94.6984C42.5758 83.5041 49.8835 74.6689 54.0264 72.2213C53.7802 70.8687 50.6559 72.5949 47.4974 75.2878C39.3776 82.2108 38.4761 88.7088 40.499 95.1747C40.5139 95.1721 40.5287 95.1695 40.5434 95.167C40.8994 96.2669 41.424 97.7045 41.8438 98.2872C43.82 97.4913 45.0293 95.997 44.5448 94.9495C44.5039 94.8612 44.4536 94.7774 44.3946 94.6984Z" fill="#240F00"/>
<path opacity="0.5" d="M29.0086 73.761C28.9656 73.4305 29.8917 71.6936 30.3601 70.8664L37.2684 73.5L43.1913 79.3759C43.0651 81.633 42.3862 86.3214 40.6798 87.0182C38.9735 87.7151 37.141 87.4547 36.0872 87.1967C35.6618 86.659 34.9414 82.181 35.43 77.9655C33.024 77.686 29.0623 74.1741 29.0086 73.761Z" fill="#220F01"/>
<path d="M34.5541 70.7426C36.4893 59.8799 46.8367 54.6382 51.782 53.9956C51.115 48.6177 49.0062 48.82 44.7888 49.3984C30.0537 51.4189 26.9377 64.0446 26.6894 70.558C32.0623 71.6756 34.2173 71.776 34.5541 70.7426Z" fill="#351700"/>
<ellipse cx="3.92365" cy="2.0607" rx="3.92365" ry="2.0607" transform="matrix(1.01894 0.0126966 0.0994827 0.978451 26.4727 68.5913)" fill="#451E00"/>
<path opacity="0.6" fill-rule="evenodd" clip-rule="evenodd" d="M34.6109 70.4258C36.6884 59.7775 46.8828 54.6313 51.7798 53.995C52.0048 52.6984 48.3529 53.0718 44.3345 54.2934C34.0039 57.4341 30.883 62.8861 30.6347 69.3994C30.6503 69.4026 30.6659 69.4059 30.6814 69.4092C30.6509 70.5216 30.6688 71.9977 30.8789 72.6732C33.0869 72.7008 34.785 71.8203 34.6718 70.7068C34.6622 70.6124 34.6417 70.5186 34.6109 70.4258Z" fill="#240F00"/>
<path d="M39.1861 74.5519C40.8203 63.4904 50.9017 57.8241 55.7673 57.0012C54.972 51.5816 52.8954 51.86 48.7468 52.5925C34.252 55.1517 31.4971 68.0388 31.4176 74.6395C36.75 75.5831 38.88 75.6095 39.1861 74.5519Z" fill="#351700"/>
<ellipse cx="3.8922" cy="2.07465" rx="3.8922" ry="2.07465" transform="matrix(1.01432 -0.0228915 0.122262 0.980167 31.1533 72.6565)" fill="#451E00"/>
<path opacity="0.6" fill-rule="evenodd" clip-rule="evenodd" d="M39.2365 74.2281C41.0173 63.3796 50.9493 57.8159 55.7671 57.0011C55.9563 55.681 52.3607 56.1863 48.4249 57.563C38.3065 61.1021 35.3643 66.7289 35.2849 73.3296C35.3007 73.3324 35.3165 73.3352 35.3322 73.338C35.3303 74.465 35.3855 75.9583 35.61 76.6347C37.7904 76.5855 39.4444 75.6351 39.3043 74.5121C39.2924 74.4163 39.2696 74.3215 39.2365 74.2281Z" fill="#240F00"/>
<path d="M44.3444 82.8305C43.0023 71.38 50.933 62.8511 55.2557 60.6326C53.1104 55.4821 51.2466 56.3567 47.5688 58.279C34.7189 64.9953 35.4889 78.5808 37.1248 85.1556C42.3404 84.556 44.3329 83.9686 44.3444 82.8305Z" fill="#351700"/>
<ellipse cx="3.85739" cy="2.08977" rx="3.85739" ry="2.08977" transform="matrix(0.94816 -0.317793 0.365233 0.930916 36.3652 83.2632)" fill="#451E00"/>
<path opacity="0.6" fill-rule="evenodd" clip-rule="evenodd" d="M44.3072 82.4948C43.1571 71.2136 50.975 62.8297 55.2554 60.6329C55.0897 59.268 51.8686 60.8055 48.556 63.3059C40.04 69.734 38.7547 76.1669 40.3905 82.7417C40.4061 82.7399 40.4216 82.7381 40.437 82.7364C40.7272 83.8556 41.1656 85.3221 41.5501 85.9288C43.57 85.2518 44.8658 83.832 44.4443 82.7575C44.4083 82.6658 44.3624 82.5781 44.3072 82.4948Z" fill="#240F00"/>
<path opacity="0.5" d="M32.4349 55.44L33.646 54.2275V53.3181L39.2976 55.0358L47.5732 66.3525L42.2244 73.3243C38.5912 73.971 35.5971 72.7181 34.5543 72.0108L37.0773 62.6139C34.5543 62.0077 34.2515 59.4816 34.1506 59.0775C34.0698 58.7541 34.5879 57.5282 34.857 56.9556C34.2919 56.7131 33.0068 55.8442 32.4349 55.44Z" fill="#220F01"/>
</g>
<path d="M39.9472 56.2182C46.7215 47.5146 58.3164 47.7124 62.9898 49.4544C64.9063 44.3862 62.9468 43.58 58.9471 42.1213C44.9728 37.0247 36.3325 46.736 33.0773 52.3808C37.3085 55.8793 39.1677 56.9749 39.9472 56.2182Z" fill="#351700"/>
<ellipse cx="3.92455" cy="2.06029" rx="3.92455" ry="2.06029" transform="matrix(0.895085 0.487126 -0.3681 0.912056 33.8027 50.5403)" fill="#451E00"/>
<path opacity="0.6" fill-rule="evenodd" clip-rule="evenodd" d="M40.1459 55.9652C46.9462 47.5182 58.3608 47.729 62.9885 49.4539C63.7918 48.4123 60.3879 47.0364 56.2643 46.2397C45.6635 44.1914 40.3623 47.5555 37.1071 53.2003C37.1195 53.2105 37.1318 53.2208 37.1441 53.231C36.5986 54.2005 35.9266 55.5144 35.7975 56.2099C37.7376 57.2657 39.6499 57.2803 40.0688 56.2425C40.1043 56.1545 40.1299 56.0618 40.1459 55.9652Z" fill="#240F00"/>
<path d="M42.2675 61.7524C48.8682 52.7323 60.4256 52.4304 65.1125 53.9756C66.9351 48.8106 64.9687 48.0867 60.958 46.7965C46.9451 42.2886 38.5023 52.3997 35.3557 58.2007C39.6322 61.5264 41.5038 62.5448 42.2675 61.7524Z" fill="#351700"/>
<ellipse cx="3.89301" cy="2.07432" rx="3.89301" ry="2.07432" transform="matrix(0.907611 0.453514 -0.348738 0.924186 36.0479 56.324)" fill="#451E00"/>
<path opacity="0.6" fill-rule="evenodd" clip-rule="evenodd" d="M42.4648 61.4911C49.0957 52.7267 60.4741 52.4456 65.1153 53.9757C65.8979 52.8964 62.4822 51.6636 58.3595 51.0426C47.7608 49.4459 42.536 53.0481 39.3894 58.8491C39.4019 58.8587 39.4143 58.8684 39.4266 58.878C38.8997 59.8739 38.2526 61.2205 38.136 61.9236C40.0874 62.8986 41.9932 62.8308 42.3927 61.772C42.4265 61.6824 42.4505 61.5885 42.4648 61.4911Z" fill="#240F00"/>
<path d="M41.9036 70.9186C46.0532 60.1641 57.0426 56.3256 61.8999 56.3828C62.4029 50.8251 60.3468 50.728 56.198 50.71C41.7025 50.6473 36.0519 63.023 34.4345 69.6024C39.327 71.5086 41.3631 71.9199 41.9036 70.9186Z" fill="#351700"/>
<ellipse cx="3.85705" cy="2.09007" rx="3.85705" ry="2.09007" transform="matrix(0.98681 0.161883 -0.110813 0.993841 34.6455 67.5742)" fill="#451E00"/>
<path opacity="0.6" fill-rule="evenodd" clip-rule="evenodd" d="M42.026 70.6053C46.2661 60.0893 57.0889 56.3259 61.8987 56.3826C62.3883 55.098 58.8228 54.9531 54.7276 55.6171C44.1996 57.3241 40.0647 62.4133 38.4473 68.9927C38.4616 68.9983 38.4759 69.0039 38.4901 69.0094C38.2252 70.1348 37.9295 71.6366 37.9868 72.3528C40.0889 72.6977 41.8967 72.0472 42.0246 70.9C42.0355 70.8026 42.0358 70.7042 42.026 70.6053Z" fill="#240F00"/>
<path d="M112.239 81.411C109.735 69.1494 97.7639 62.2253 92.0927 60.983C92.7108 55.0864 95.1272 55.5366 99.9645 56.6297C116.865 60.4488 120.767 74.7932 121.226 82.0478C115.113 82.7131 112.652 82.5939 112.239 81.411Z" fill="#351700"/>
<ellipse cx="4.58468" cy="2.22289" rx="4.58468" ry="2.22289" transform="matrix(-0.996693 -0.0812573 -0.0810671 0.996709 121.42 79.8889)" fill="#451E00"/>
<path opacity="0.6" fill-rule="evenodd" clip-rule="evenodd" d="M112.163 81.053C109.501 69.0148 97.7085 62.2133 92.0927 60.9832C91.8006 59.5203 95.9859 60.3254 100.613 62.1111C112.508 66.7018 116.223 73.086 116.682 80.3405C116.664 80.3425 116.646 80.3444 116.628 80.3464C116.693 81.5842 116.712 83.2203 116.49 83.9475C113.966 83.7417 112.001 82.583 112.101 81.3593C112.109 81.2553 112.13 81.153 112.163 81.053Z" fill="#240F00"/>
<path d="M103.813 87.2291C106.59 75.0265 98.5431 63.7708 93.8905 60.2946C96.8857 55.1799 98.9007 56.589 102.855 59.5845C116.673 70.0506 114.309 84.7279 111.735 91.5247C105.893 89.6032 103.701 88.4771 103.813 87.2291Z" fill="#351700"/>
<ellipse cx="4.58593" cy="2.2223" rx="4.58593" ry="2.2223" transform="matrix(-0.873978 -0.485965 -0.485088 0.874465 112.804 89.6387)" fill="#451E00"/>
<path opacity="0.6" fill-rule="evenodd" clip-rule="evenodd" d="M103.892 86.8725C106.434 74.8079 98.4986 63.7373 93.8914 60.295C94.2288 58.8419 97.7084 61.3055 101.186 64.845C110.126 73.9443 110.876 81.2944 108.301 88.0912C108.284 88.0856 108.267 88.08 108.25 88.0744C107.799 89.2285 107.141 90.7266 106.639 91.2971C104.426 90.0662 103.114 88.1984 103.709 87.1252C103.76 87.0341 103.821 86.9498 103.892 86.8725Z" fill="#240F00"/>
<path d="M95.1835 89.4781C98.1722 77.3257 90.3228 65.9314 85.7314 62.3746C88.8151 57.3129 90.8053 58.7569 94.7073 61.821C108.34 72.5264 105.722 87.1603 103.03 93.9111C97.2223 91.8881 95.0498 90.7239 95.1835 89.4781Z" fill="#351700"/>
<ellipse cx="4.58601" cy="2.22225" rx="4.58601" ry="2.22225" transform="matrix(-0.865375 -0.501125 -0.500239 0.865887 104.13 92.0442)" fill="#451E00"/>
<path opacity="0.6" fill-rule="evenodd" clip-rule="evenodd" d="M95.2681 89.1227C98.0195 77.1044 90.2782 65.8971 85.7316 62.375C86.0942 60.928 89.5304 63.4519 92.9458 67.0515C101.726 76.3053 102.348 83.6675 99.6557 90.4183C99.6386 90.4123 99.6217 90.4065 99.6048 90.4006C99.1333 91.5467 98.4498 93.0331 97.9379 93.5947C95.746 92.3255 94.4669 90.4351 95.0809 89.3724C95.133 89.2822 95.1957 89.1989 95.2681 89.1227Z" fill="#240F00"/>
<path d="M87.5691 91.0924C92.5729 79.6235 86.7671 67.0615 82.8447 62.7767C86.7411 58.3118 88.4578 60.0728 91.7843 63.755C103.406 76.62 98.3474 90.5974 94.5506 96.7933C89.1701 93.8136 87.2263 92.2974 87.5691 91.0924Z" fill="#351700"/>
<ellipse cx="4.58687" cy="2.22184" rx="4.58687" ry="2.22184" transform="matrix(-0.767816 -0.64067 -0.639778 0.76856 95.9502 95.1399)" fill="#451E00"/>
<path opacity="0.6" fill-rule="evenodd" clip-rule="evenodd" d="M87.7133 90.7554C92.4602 79.3784 86.7294 67.0193 82.8453 62.7764C83.4477 61.4118 86.4066 64.4827 89.1629 68.61C96.2488 79.2205 95.6145 86.5816 91.8177 92.7775C91.8019 92.7687 91.7861 92.76 91.7704 92.7513C91.1116 93.8008 90.1862 95.1496 89.5865 95.6162C87.6415 93.9932 86.7011 91.913 87.4862 90.9699C87.5529 90.8898 87.6289 90.8182 87.7133 90.7554Z" fill="#240F00"/>
<path d="M89.1541 86.561C89.477 85.9144 89.6923 84.6749 89.7596 84.136C95.714 77.1642 108.249 60.1489 109.54 60.7955C110.832 61.4422 114.654 65.2077 115.596 66.2518L110.751 69.384C111.357 71.5059 111.155 75.1434 109.54 75.9517C108.249 76.5984 105.234 76.6927 103.889 76.659L103.384 79.8923C103.216 80.4312 102.536 81.5898 101.164 81.9131C99.7913 82.2365 97.497 81.7784 96.5214 81.509C96.6021 82.3173 95.8149 84.6749 95.4113 85.7527C93.5543 86.6419 90.4661 86.6621 89.1541 86.561Z" fill="#220F01"/>
<path d="M107.632 64.5448C101.931 53.4068 88.5427 49.9551 82.7466 50.2831C81.7606 44.4369 84.209 44.221 89.1618 43.9735C106.466 43.1088 114.072 55.8775 116.46 62.7423C110.75 65.0264 108.347 65.5733 107.632 64.5448Z" fill="#351700"/>
<ellipse cx="4.58484" cy="2.22282" rx="4.58484" ry="2.22282" transform="matrix(-0.981849 0.189663 0.189232 0.981933 116.066 60.6101)" fill="#451E00"/>
<path opacity="0.6" fill-rule="evenodd" clip-rule="evenodd" d="M107.46 64.2229C101.668 53.3407 88.4829 49.9589 82.7432 50.2837C82.0694 48.953 86.3169 48.6034 91.253 49.0797C103.943 50.3039 109.233 55.455 111.621 62.3198C111.604 62.3263 111.588 62.3329 111.572 62.3395C111.966 63.5143 112.424 65.0853 112.405 65.8455C109.919 66.3257 107.715 65.7378 107.482 64.5324C107.463 64.4307 107.456 64.3273 107.46 64.2229Z" fill="#240F00"/>
<path d="M101.075 72.4145C100.477 59.9135 89.7073 51.2343 84.2933 49.1365C85.8067 43.4044 88.1256 44.2201 92.7385 46.0425C108.855 52.4097 110.515 67.1834 109.858 74.4226C103.716 74.1421 101.302 73.6467 101.075 72.4145Z" fill="#351700"/>
<ellipse cx="4.58494" cy="2.22277" rx="4.58494" ry="2.22277" transform="matrix(-0.972425 -0.233215 -0.232695 0.97255 110.382 72.3188)" fill="#451E00"/>
<path opacity="0.6" fill-rule="evenodd" clip-rule="evenodd" d="M101.054 72.0509C100.268 59.7457 89.6544 51.2145 84.2931 49.1372C84.2284 47.6468 88.241 49.0845 92.5401 51.5591C103.592 57.9208 106.286 64.7995 105.629 72.0388C105.611 72.0379 105.593 72.0371 105.575 72.0364C105.45 73.2694 105.219 74.8891 104.888 75.5736C102.426 74.9831 100.661 73.5365 100.947 72.3426C100.971 72.2416 101.007 72.1443 101.054 72.0509Z" fill="#240F00"/>
<path d="M93.3657 76.901C92.9855 64.3915 82.3684 55.5258 76.9917 53.3339C78.6046 47.6291 80.909 48.4851 85.4894 50.3877C101.493 57.035 102.895 71.8353 102.113 79.062C95.976 78.6744 93.5711 78.137 93.3657 76.901Z" fill="#351700"/>
<ellipse cx="4.58499" cy="2.22275" rx="4.58499" ry="2.22275" transform="matrix(-0.968211 -0.250136 -0.249584 0.968353 102.672 76.9675)" fill="#451E00"/>
<path opacity="0.6" fill-rule="evenodd" clip-rule="evenodd" d="M93.3509 76.5367C92.7784 64.2195 82.3153 55.5045 76.9909 53.334C76.9521 51.8426 80.939 53.3501 85.1944 55.8993C96.1343 62.4528 98.7076 69.3774 97.9248 76.6041C97.907 76.603 97.8893 76.6019 97.8717 76.6008C97.7249 77.8315 97.4652 79.4469 97.1227 80.1255C94.671 79.4921 92.9318 78.0149 93.2382 76.8262C93.2641 76.7257 93.3019 76.6291 93.3509 76.5367Z" fill="#240F00"/>
<path d="M86.4652 80.5026C88.2093 68.1097 79.2476 57.5698 74.3201 54.4968C76.8759 49.1485 79.0019 50.3833 83.1938 53.036C97.8395 62.3041 96.7149 77.1282 94.7193 84.1173C88.7372 82.6935 86.4582 81.7555 86.4652 80.5026Z" fill="#351700"/>
<ellipse cx="4.58556" cy="2.22247" rx="4.58556" ry="2.22247" transform="matrix(-0.911705 -0.410845 -0.41004 0.912068 95.625 82.1479)" fill="#451E00"/>
<path opacity="0.6" fill-rule="evenodd" clip-rule="evenodd" d="M86.5138 80.1402C88.0348 67.9051 79.1999 57.5407 74.3206 54.4978C74.5349 53.0215 78.2088 55.184 81.9708 58.4188C91.6421 66.7348 93.0053 73.996 91.0097 80.9851C90.9921 80.9809 90.9745 80.9767 90.9569 80.9726C90.6038 82.1605 90.0742 83.7085 89.6217 84.3191C87.3128 83.2787 85.849 81.5276 86.3523 80.4081C86.3951 80.3129 86.4492 80.2235 86.5138 80.1402Z" fill="#240F00"/>
<path d="M100.963 46.5487C100.398 46.2254 98.507 45.673 97.6324 45.4373L85.0171 66.9591C86.0667 68.2524 86.5982 72.4153 86.7328 74.3351C89.7604 74.032 92.889 72.1122 93.3936 71.1018C93.7973 70.2935 91.0724 64.6015 89.6595 62.5133C93.9992 62.9174 96.1185 60.3914 96.6231 59.1789C97.0268 58.2089 95.8831 56.2824 95.0084 54.8341C100.256 52.9749 101.165 48.5359 100.963 46.5487Z" fill="#220F01"/>
<path d="M91.6444 52.3911C81.9949 44.4351 68.3381 46.5896 63.1486 49.1947C59.925 44.2212 62.0865 43.0497 66.5339 40.8536C82.073 33.1808 94.1174 41.8762 99.0313 47.2274C94.6968 51.5937 92.7084 53.0508 91.6444 52.3911Z" fill="#351700"/>
<ellipse cx="4.58637" cy="2.22208" rx="4.58637" ry="2.22208" transform="matrix(-0.825635 0.564204 0.563296 0.826255 97.8262 45.4263)" fill="#451E00"/>
<path opacity="0.6" fill-rule="evenodd" clip-rule="evenodd" d="M91.361 52.1626C81.7292 44.4771 68.2863 46.615 63.1471 49.1949C62.001 48.2415 65.7606 46.2321 70.4798 44.7069C82.6119 40.7858 89.5103 43.4103 94.4243 48.7615C94.4118 48.774 94.3994 48.7865 94.3871 48.799C95.2152 49.7205 96.2582 50.981 96.5425 51.6862C94.4512 53.1153 92.1954 53.4519 91.5041 52.4379C91.4458 52.3523 91.3982 52.2603 91.361 52.1626Z" fill="#240F00"/>
<path d="M88.1098 60.4306C79.3783 51.4744 65.5688 52.1344 60.1278 54.1611C57.4616 48.867 59.7371 47.937 64.3962 46.2364C80.6742 40.2948 91.7064 50.246 96.0122 56.0988C91.2305 59.9691 89.0961 61.2018 88.1098 60.4306Z" fill="#351700"/>
<ellipse cx="4.58585" cy="2.22233" rx="4.58585" ry="2.22233" transform="matrix(-0.881947 0.47135 0.470484 0.882409 95.0088 54.1772)" fill="#451E00"/>
<path opacity="0.6" fill-rule="evenodd" clip-rule="evenodd" d="M87.8529 60.1715C79.1098 51.4872 65.5154 52.154 60.1274 54.161C59.0913 53.0888 63.0463 51.4992 67.9028 50.495C80.3879 47.9134 86.9615 51.271 91.2673 57.1238C91.2534 57.135 91.2396 57.1462 91.2259 57.1574C91.9492 58.1633 92.8494 59.5291 93.0556 60.2609C90.8219 61.4547 88.543 61.5444 87.9656 60.4614C87.9168 60.3698 87.8793 60.2729 87.8529 60.1715Z" fill="#240F00"/>
<path d="M84.7149 70.294C78.7403 59.3007 65.2705 56.1819 59.4843 56.6535C58.354 50.8335 60.7963 50.557 65.7415 50.1868C83.0194 48.8935 90.9384 61.4698 93.4951 68.2732C87.8435 70.6982 85.455 71.3045 84.7149 70.294Z" fill="#351700"/>
<ellipse cx="4.5849" cy="2.22279" rx="4.5849" ry="2.22279" transform="matrix(-0.976847 0.213938 0.213456 0.976953 93.0498 66.1511)" fill="#451E00"/>
<path opacity="0.6" fill-rule="evenodd" clip-rule="evenodd" d="M84.5365 69.9756C78.4771 59.2404 65.2123 56.1865 59.4823 56.6534C58.7759 55.3399 63.0134 54.8851 67.9598 55.2388C80.676 56.1482 86.0921 61.1666 88.6488 67.9701C88.6326 67.977 88.6164 67.984 88.6002 67.991C89.0236 69.1557 89.5195 70.7148 89.5195 71.4751C87.046 72.0168 84.8284 71.4837 84.5663 70.2844C84.5442 70.1832 84.5344 70.0801 84.5365 69.9756Z" fill="#240F00"/>
<path d="M47.5314 96.7039C46.9235 97.0536 42.6731 91.7037 39.8431 93.3313C38.8877 93.8807 38.1588 94.8177 37.6115 95.8305C36.4088 98.058 35.9972 100.764 36.4817 103.261C37.1674 106.791 39.5438 109.681 42.339 111.596C49.8608 116.749 55.8277 115.775 63.8558 112.792C70.1749 110.445 78.7847 105.612 77.001 96.8931C73.8613 81.5448 47.5393 96.6995 47.5314 96.7039Z" fill="#873C41"/>
<path d="M69.3076 95.7228C67.2635 96.9946 64.7746 97.1258 62.5423 96.6185C62.1154 96.5211 61.7723 96.8804 61.6658 97.2934C60.5759 101.538 54.3962 103.753 51.2968 101.032C51.0564 100.82 50.6297 100.77 50.3777 101.01C48.7051 102.6 46.0252 103.032 44.057 101.956C41.278 100.436 41.2916 96.1668 42.0486 93.1936C44.498 93.9435 47.0694 96.9697 47.5313 96.7029C47.5375 96.6992 63.696 87.3991 72.203 90.7541C72.0226 92.8154 71.0784 94.6209 69.3076 95.7228Z" fill="white"/>
<path d="M46.131 112.233C50.551 108.168 55.9855 105.897 61.4957 104.286C66.2089 102.907 71.5156 102.014 76.2862 103.382C74.0755 108.138 68.3871 111.108 63.8558 112.792C56.8331 115.401 51.3875 116.473 45.0996 113.252C45.4422 112.911 45.7762 112.559 46.131 112.233Z" fill="#EE7E8B"/>
<path d="M60.0418 83.3316C60.0464 85.7315 61.2974 87.6794 63.895 87.2802C65.7648 86.7784 67.0094 85.4574 67.0045 82.9407C66.9994 80.3036 65.467 78.5923 63.8781 78.5893C61.7543 78.5852 60.0371 80.9317 60.0418 83.3316Z" fill="#2A1200"/>
<path d="M42.335 83.2883C42.3381 84.897 43.0647 86.6246 44.924 86.426C46.4843 86.2594 46.8827 84.2065 46.8807 83.1959C46.8773 81.4283 45.9935 79.7583 44.7044 79.7559C43.3179 79.7532 42.3318 81.6797 42.335 83.2883Z" fill="#2A1200"/>
<path d="M58.8787 71.9589C61.3834 70.7157 64.5119 70.8314 67.0235 72.2489C67.8333 72.7059 68.3562 73.7984 67.9411 74.7246C67.5579 75.5813 66.5475 76.119 65.6804 75.6288C65.4205 75.4819 65.1553 75.3484 64.8821 75.2333C64.7971 75.1973 64.5785 75.1545 64.4937 75.0889C64.4542 75.0773 64.4153 75.0655 64.3752 75.0548C64.1279 74.988 63.8782 74.934 63.6268 74.8928C63.4828 74.8693 63.3391 74.8507 63.1946 74.8355C63.1491 74.831 63.1037 74.8272 63.0577 74.8236C62.9396 74.8386 62.7923 74.8175 62.6814 74.8211C62.5369 74.8257 62.3933 74.8349 62.2493 74.8484C61.9981 74.8721 61.7482 74.9085 61.5014 74.9583C61.4667 74.9652 61.433 74.9728 61.3985 74.9806C61.2695 75.0211 61.1398 75.0584 61.0119 75.1036C60.74 75.2001 60.4754 75.3154 60.2159 75.4436C59.4067 75.8456 58.265 75.2776 57.956 74.3621C57.6173 73.354 58.0118 72.3896 58.8787 71.9589Z" fill="#351700"/>
<path d="M41.4235 72.8329C42.921 72.0181 44.639 71.835 46.1853 72.2826C46.6026 72.4034 46.9835 72.7679 47.1621 73.1708C47.3382 73.5678 47.374 74.1362 47.2005 74.5679C47.0201 75.016 46.7121 75.4422 46.278 75.6548C45.8379 75.8705 45.3879 75.926 44.9346 75.7954C44.8603 75.7738 44.7843 75.7613 44.7087 75.7435C44.4734 75.7167 44.2371 75.7097 43.9984 75.7198C43.7118 75.7633 43.4294 75.8332 43.1506 75.9294C43.0535 75.9741 42.9542 76.0138 42.8592 76.0653C42.449 76.2881 41.9358 76.3413 41.5158 76.2059C41.1137 76.0763 40.7013 75.7297 40.5394 75.3169C40.3714 74.8896 40.3153 74.3816 40.5009 73.9199C40.6858 73.4596 40.9896 73.0689 41.4235 72.8329Z" fill="#351700"/>
<path fill-rule="evenodd" clip-rule="evenodd" d="M31.3313 81.2291L41.2244 80.8729L41.3252 78.751L31.2863 79.2088L31.3313 81.2291Z" fill="#896307"/>
<path fill-rule="evenodd" clip-rule="evenodd" d="M66.6209 68.5924C72.107 69.4584 75.9175 75.091 74.9382 81.3221C73.9589 87.5531 68.6052 91.7391 63.119 90.873C57.6329 90.007 53.8224 84.3744 54.8017 78.1434C55.7811 71.9124 61.1347 67.7264 66.6209 68.5924ZM77.0858 79.1363C76.981 72.943 72.8716 67.5334 66.9346 66.5962C60.2101 65.5347 53.9569 70.6552 52.8289 77.8319C52.8287 77.8334 52.8285 77.8348 52.8282 77.8363C52.6207 77.7525 52.3944 77.6719 52.153 77.6016C51.419 77.3877 50.4949 77.2566 49.5328 77.4579C49.41 74.9321 48.677 72.6129 47.4844 70.7814C46.0019 68.5047 43.7695 66.937 41.1152 66.7978C38.465 66.6588 36.0436 67.9781 34.2658 70.0724C32.4876 72.1674 31.3023 75.0854 31.0771 78.3265C30.8519 81.5674 31.624 84.5946 33.1053 86.8695C34.5878 89.1462 36.8203 90.714 39.4745 90.8531C42.1247 90.9921 44.5462 89.6728 46.3239 87.5785C48.0567 85.5371 49.2264 82.7143 49.4935 79.5725C50.1849 79.2891 50.918 79.3459 51.5946 79.5431C52.0162 79.6659 52.3844 79.8361 52.6525 79.9801C52.6055 86.3181 56.757 91.9145 62.8053 92.8693C69.5297 93.9308 75.783 88.8102 76.911 81.6335C76.9338 81.4887 76.9543 81.344 76.9726 81.1996L94.4029 78.3858C97.6728 77.9325 100.937 78.0829 103.347 78.8939C105.765 79.7074 107.041 82.7002 107.079 84.5587L109.077 84.5105C109.013 81.4205 106.774 77.9157 103.983 76.9766C101.187 76.0359 97.5879 75.9044 94.1259 76.3857L94.1152 76.3872L77.0858 79.1363ZM45.8151 71.8961C47.0322 73.7653 47.7176 76.344 47.52 79.1887C47.3223 82.0331 46.2843 84.528 44.8098 86.2651C43.3348 88.0028 41.4742 88.9346 39.5838 88.8355C37.6975 88.7366 35.9906 87.6221 34.7746 85.7548C33.5575 83.8856 32.8721 81.3069 33.0698 78.4623C33.2675 75.6178 34.3055 73.1229 35.7799 71.3859C37.2549 69.6482 39.1156 68.7163 41.0059 68.8154C42.8923 68.9143 44.5992 70.0288 45.8151 71.8961Z" fill="#C5900F"/>
</svg>
