<svg width="108" height="122" viewBox="0 0 108 122" fill="none" xmlns="http://www.w3.org/2000/svg">
<path d="M45.5271 22.7508C45.5271 22.7508 19.0979 26.8868 21.1021 64.5533C21.1094 64.6929 18.0463 66.7269 17.8063 66.9442C15.6704 68.8763 13.8784 71.3508 13.0947 74.2453C10.3043 84.5527 20.2807 95.1732 28.3484 97.9922C31.3618 99.045 34.547 99.5562 37.7384 99.649C58.4853 100.253 85.9531 87.0647 87.3638 61.308C87.4144 60.3838 87.4268 59.4587 87.4031 58.5358C87.278 53.6452 86.0979 48.8822 84.3192 44.4598C84.32 44.46 72.7735 15.815 45.5271 22.7508Z" fill="#FFE4C0"/>
<g style="mix-blend-mode:multiply" opacity="0.5">
<path d="M20.4329 64.9493C20.7189 65.6508 21.0043 66.5471 21.084 67.0598C21.424 69.2586 20.6715 71.5295 19.3649 73.1622C18.1244 74.7125 16.3528 75.7181 14.6374 76.0976C14.0583 76.2258 13.3571 76.2917 12.7439 76.3124C13.3901 69.9441 18.5729 66.1218 20.4329 64.9493Z" fill="#FEB3A4"/>
</g>
<g style="mix-blend-mode:multiply" opacity="0.5">
<path d="M57.6848 81.6886C52.7769 80.6335 49.731 75.4601 50.8817 70.1336C52.0323 64.807 56.9438 61.3444 61.8517 62.3995C66.7596 63.4547 69.8055 68.6281 68.6548 73.9546C67.5042 79.2811 62.5928 82.7438 57.6848 81.6886Z" fill="#FEB3A4"/>
</g>
<path opacity="0.3" d="M33.653 66.7909C33.653 66.7909 29.4606 62.8012 26.2149 66.5523L33.653 66.7909Z" fill="#633B1D"/>
<path d="M72.7452 86.6754C86.6946 93.6684 99.363 76.1207 95.3103 66.2596C92.7251 59.9696 85.1815 59.4824 80.8083 65.2296C78.2274 68.6215 76.1385 72.9569 74.9519 77.104" fill="#FFE4C0"/>
<path opacity="0.3" d="M84.241 71.0168C82.4452 72.8448 81.0013 75.5558 79.2271 77.0683C79.5558 74.5381 80.0799 71.8362 81.3089 69.5559C82.5567 67.2399 84.8253 65.3317 87.1344 65.4884C89.9961 65.6827 92.3513 69.0171 92.6532 72.0406C92.4727 70.2312 88.8355 69.0076 87.447 69.1793C85.2714 73.2802 84.4269 81.3619 84.4269 81.3619C82.6172 76.7873 83.3517 73.1887 84.241 71.0168Z" fill="#633B1D"/>
<path d="M29.0766 76.4508C27.1969 76.5029 25.3945 75.9652 23.8422 74.3516C23.03 73.5081 22.2063 73.0437 21.0409 73.7653C18.2508 75.4934 17.5939 79.8107 18.3439 82.7054C19.1673 85.8818 21.6478 88.4426 24.5064 90.1128C32.1985 94.607 38.0986 93.5956 45.9699 90.7227C52.1657 88.462 60.5421 83.9047 58.4188 76.0614C55.7895 66.3504 44.4575 71.013 38.0636 73.6326C35.3488 74.746 32.1119 76.3665 29.0766 76.4508Z" fill="white"/>
<mask id="mask0_108_1110" style="mask-type:alpha" maskUnits="userSpaceOnUse" x="18" y="70" width="41" height="24">
<path d="M29.0756 76.4508C27.1959 76.5029 25.3935 75.9652 23.8412 74.3516C23.029 73.5081 22.2053 73.0437 21.0399 73.7653C18.2498 75.4934 17.5929 79.8107 18.3429 82.7054C19.1663 85.8818 21.6468 88.4426 24.5054 90.1128C32.1975 94.607 38.0976 93.5957 45.9689 90.7227C52.1647 88.4621 60.5411 83.9047 58.4178 76.0614C55.7885 66.3504 44.4565 71.013 38.0626 73.6326C35.3478 74.746 32.1109 76.3665 29.0756 76.4508Z" fill="white"/>
</mask>
<g mask="url(#mask0_108_1110)">
<path fill-rule="evenodd" clip-rule="evenodd" d="M54.7393 87.2376L46.6868 66.9106L45.5659 67.3549L53.6184 87.6819L54.7393 87.2376ZM38.1932 93.8054L32.6312 72.4763L31.4645 72.7806L37.0265 94.1098L38.1932 93.8054ZM21.6391 88.6555L24.7081 73.0181L23.525 72.7858L20.456 88.4232L21.6391 88.6555Z" fill="#D1D3D4"/>
</g>
<path d="M38.5166 61.7909C41.2106 60.0212 44.2882 60.1817 46.061 60.6289C46.2622 60.6796 46.423 60.4255 46.2779 60.2771C42.4576 56.3704 39.525 59.1161 38.2194 61.5438C38.1211 61.7265 38.3432 61.9048 38.5166 61.7909Z" fill="#2A1200"/>
<path d="M22.302 60.4239C22.3051 62.0239 23.0293 63.7422 24.8825 63.5447C26.4377 63.379 26.8348 61.3371 26.8328 60.332C26.8294 58.5739 25.9486 56.9129 24.6636 56.9104C23.2817 56.9078 22.2989 58.8239 22.302 60.4239Z" fill="#2A1200"/>
<path d="M39.4871 48.0448C42.2367 47.5976 45.1831 48.6251 47.161 50.7093C47.7988 51.3812 47.9772 52.5731 47.3109 53.3319C46.6953 54.0338 45.5754 54.2486 44.8928 53.5283C44.6882 53.3124 44.4746 53.1078 44.248 52.9182C44.1776 52.8591 43.9819 52.7542 43.9203 52.6671C43.886 52.6444 43.8525 52.6218 43.8174 52.5998C43.6014 52.4638 43.3793 52.3393 43.1519 52.2264C43.0215 52.1618 42.8901 52.1019 42.7569 52.0452C42.7148 52.0275 42.6727 52.0106 42.6299 51.9937C42.513 51.9733 42.3789 51.9101 42.2722 51.8809C42.1332 51.8429 41.9938 51.8096 41.8526 51.7802C41.6064 51.7289 41.3577 51.6903 41.108 51.6652C41.073 51.6617 41.0386 51.659 41.0035 51.6562C40.8688 51.6569 40.7343 51.6544 40.5992 51.6598C40.312 51.6718 40.0262 51.7038 39.7415 51.7495C38.853 51.8944 37.9316 51.0195 37.9051 50.0587C37.8773 49.001 38.5352 48.2 39.4871 48.0448Z" fill="#351700"/>
<path d="M21.0267 51.2033C22.0252 49.8292 23.4924 48.9275 25.0751 48.6657C25.5023 48.5952 26.001 48.7589 26.3341 49.044C26.6625 49.3248 26.938 49.8197 26.9667 50.2817C26.9962 50.7614 26.9015 51.2762 26.602 51.6534C26.2984 52.0359 25.9173 52.2788 25.4536 52.3561C25.3775 52.3686 25.3038 52.39 25.2281 52.4065C25.0051 52.4834 24.7894 52.5785 24.579 52.69C24.3397 52.852 24.1156 53.036 23.906 53.242C23.8378 53.3238 23.7654 53.4021 23.702 53.4891C23.4283 53.8652 22.9894 54.1331 22.5535 54.1918C22.1363 54.248 21.617 54.1138 21.2946 53.8128C20.9606 53.5012 20.6926 53.0692 20.662 52.575C20.6313 52.0824 20.7373 51.6013 21.0267 51.2033Z" fill="#351700"/>
<path d="M87.4595 58.5876C87.4832 59.5113 87.4708 60.4371 87.4202 61.3619C79.7584 62.6627 76.1297 70.8696 75.2731 74.8105C75.2731 74.8105 72.9933 74.9445 72.4569 74.509C69.6408 73.035 64.6321 66.9917 67.1264 54.6104C68.3333 48.9825 67.5287 44.5015 57.6722 37.5257C47.8158 30.5498 32.1259 34.9127 28.9075 37.5257C26.3327 39.616 25.0986 40.4066 24.8034 40.5406C31.6759 24.9549 45.5839 22.7768 45.5839 22.7768C72.8301 15.836 84.6422 43.6803 84.9284 44.3924C86.707 48.818 87.3344 53.6935 87.4595 58.5876Z" fill="#FFF4D4"/>
<path d="M18.2468 21.245C24.3618 23.4961 28.5056 32.9028 29.7125 36.9227C35.4453 34.1087 39.1666 33.9077 45.2012 33.7067C44.5307 31.5628 52.9456 25.0639 61.4945 26.0689C72.381 27.3487 78.8942 35.1137 79.3971 36.1187L85.4316 29.2848C67.4084 -1.58819 33.1321 11.0612 18.2468 21.245Z" fill="#FFD355"/>
<path d="M18.2468 21.2448C24.3618 23.496 28.5056 32.9026 29.7125 36.9225C35.4453 34.1086 39.1666 33.9076 45.2012 33.7066C44.5307 31.5626 52.9456 25.0638 61.4945 26.0688C72.381 27.3485 78.8942 35.1136 79.3971 36.1186L85.4316 29.2847C80.4028 23.6233 66.0003 13.4462 48.6208 18.0289L18.2468 21.2448Z" fill="#E2A700"/>
<path d="M18.2473 21.2449C24.3623 23.4961 28.506 32.9027 29.7129 36.9226C35.4458 34.1087 39.1671 33.9077 45.2017 33.7067C44.3971 27.114 48.7554 20.0724 50.2305 17.5265C41.4803 13.1046 22.2867 18.4813 18.2473 21.2449Z" fill="#FFC00C"/>
<path fill-rule="evenodd" clip-rule="evenodd" d="M11.4188 58.3371L21.2746 57.9828L21.375 55.8723L11.3739 56.3277L11.4188 58.3371Z" fill="#007F77"/>
<path fill-rule="evenodd" clip-rule="evenodd" d="M46.5756 45.7681C52.0411 46.6294 55.8372 52.2318 54.8616 58.4293C53.8859 64.6268 48.5525 68.7903 43.087 67.9289C37.6215 67.0675 33.8254 61.4652 34.8011 55.2677C35.7767 49.0702 41.1101 44.9067 46.5756 45.7681ZM57.001 56.2553C56.8966 50.0953 52.8027 44.7147 46.8882 43.7826C40.1891 42.7268 33.9594 47.8198 32.8357 54.9579C32.8355 54.9594 32.8352 54.9608 32.835 54.9622C32.6283 54.8789 32.4028 54.7988 32.1623 54.7288C31.4311 54.5161 30.5105 54.3857 29.552 54.5859C29.4296 52.0737 28.6994 49.767 27.5113 47.9453C26.0344 45.6809 23.8104 44.1215 21.1662 43.9831C18.526 43.8449 16.1136 45.1571 14.3426 47.2402C12.5711 49.3239 11.3903 52.2262 11.1659 55.4499C10.9415 58.6733 11.7108 61.6843 13.1865 63.9469C14.6634 66.2114 16.8874 67.7707 19.5317 67.9091C22.1719 68.0473 24.5842 66.7351 26.3552 64.6521C28.0814 62.6217 29.2468 59.814 29.5128 56.6892C30.2017 56.4072 30.932 56.4638 31.6061 56.6599C32.026 56.7821 32.3929 56.9513 32.66 57.0945C32.6132 63.3984 36.749 68.9648 42.7744 69.9144C49.4735 70.9702 55.7032 65.8772 56.8269 58.739C56.8496 58.595 56.87 58.4511 56.8883 58.3075L74.2528 55.5088C77.5104 55.0579 80.762 55.2075 83.1633 56.0142C85.572 56.8233 86.8433 59.8 86.8815 61.6485L88.8711 61.6006C88.8076 58.5272 86.577 55.0412 83.7965 54.1072C81.0112 53.1716 77.4259 53.0408 73.9769 53.5195L73.9662 53.521L57.001 56.2553ZM25.8483 49.054C27.0609 50.9132 27.7437 53.478 27.5468 56.3074C27.3498 59.1365 26.3157 61.618 24.8469 63.3457C23.3774 65.0741 21.5238 66.0009 19.6405 65.9023C17.7613 65.8039 16.0609 64.6955 14.8495 62.8382C13.637 60.9791 12.9542 58.4142 13.1511 55.5849C13.348 52.7557 14.3821 50.2742 15.851 48.5465C17.3204 46.8182 19.1741 45.8913 21.0573 45.9899C22.9365 46.0883 24.637 47.1967 25.8483 49.054Z" fill="#2FBBB3"/>
</svg>
